HIERARCHY
ROOT Hips
{
  OFFSET 3.13124 94.3669 -3.18751
  CHANNELS  6 Xposition Yposition Zposition Zrotation Xrotation Yrotation
  JOINT LeftUpLeg
  {
    OFFSET 8.64259 1.95398 -2.38835
    CHANNELS 3 Zrotation Xrotation Yrotation
    JOINT LeftLeg
    {
      OFFSET 43.7702 0 0
      CHANNELS 3 Zrotation Xrotation Yrotation
      JOINT LeftFoot
      {
        OFFSET 40.6238 0 0
        CHANNELS 3 Zrotation Xrotation Yrotation
        JOINT LeftToeBase
        {
          OFFSET 12.7242 0 0
          CHANNELS 3 Zrotation Xrotation Yrotation
          End Site
          {
            OFFSET 0 0 0
          }
        }
      }
    }
  }
  JOINT RightUpLeg
  {
    OFFSET -8.2249 1.95398 -2.59336
    CHANNELS 3 Zrotation Xrotation Yrotation
    JOINT RightLeg
    {
      OFFSET 43.5653 0 0
      CHANNELS 3 Zrotation Xrotation Yrotation
      JOINT RightFoot
      {
        OFFSET 40.6238 0 0
        CHANNELS 3 Zrotation Xrotation Yrotation
        JOINT RightToeBase
        {
          OFFSET 12.7242 0 0
          CHANNELS 3 Zrotation Xrotation Yrotation
          End Site
          {
            OFFSET 0 0 0
          }
        }
      }
    }
  }
  JOINT Spine
  {
    OFFSET 0.165834 0.87714 6.61349
    CHANNELS 3 Zrotation Xrotation Yrotation
    JOINT Spine1
    {
      OFFSET 7.38962 1.71661e-005 0
      CHANNELS 3 Zrotation Xrotation Yrotation
      JOINT Spine2
      {
        OFFSET 11.9445 1.14441e-005 0
        CHANNELS 3 Zrotation Xrotation Yrotation
        JOINT Spine3
        {
          OFFSET 14.7254 4.19617e-005 0
          CHANNELS 3 Zrotation Xrotation Yrotation
          JOINT Spine4
          {
            OFFSET 10.9679 0 0
            CHANNELS 3 Zrotation Xrotation Yrotation
            JOINT RightShoulder
            {
              OFFSET 2.46616 -1.6653 3.69651
              CHANNELS 3 Zrotation Xrotation Yrotation
              JOINT RightArm
              {
                OFFSET 13.0012 0 0
                CHANNELS 3 Zrotation Xrotation Yrotation
                JOINT RightForeArm
                {
                  OFFSET 28.7848 1.52588e-005 0
                  CHANNELS 3 Zrotation Xrotation Yrotation
                  JOINT RightHand
                  {
                    OFFSET 26.5688 1.52588e-005 0
                    CHANNELS 3 Zrotation Xrotation Yrotation
                    End Site
                    {
                      OFFSET 0 0 0
                    }
                  }
                }
              }
            }
            JOINT LeftShoulder
            {
              OFFSET 2.38034 -1.29275 -3.75231
              CHANNELS 3 Zrotation Xrotation Yrotation
              JOINT LeftArm
              {
                OFFSET 16.3182 6.10352e-005 0
                CHANNELS 3 Zrotation Xrotation Yrotation
                JOINT LeftForeArm
                {
                  OFFSET 27.0901 0 0
                  CHANNELS 3 Zrotation Xrotation Yrotation
                  JOINT LeftHand
                  {
                    OFFSET 24.5451 1.52588e-005 0
                    CHANNELS 3 Zrotation Xrotation Yrotation
                    End Site
                    {
                      OFFSET 0 0 0
                    }
                  }
                }
              }
            }
            JOINT Neck
            {
              OFFSET 5.0226 -0.0266342 0
              CHANNELS 3 Zrotation Xrotation Yrotation
              JOINT Head
              {
                OFFSET 6.69363 2.86102e-005 0
                CHANNELS 3 Zrotation Xrotation Yrotation
                End Site
                {
                  OFFSET 0 0 0
                }
              }
            }
          }
        }
      }
    }
  }
}
MOTION
Frames:	14
Frame Time:	0.0333333
-0.462278 97.719 -20.3506 77.5717 -89.9974 77.6204 -171.76 2.95433 94.4306 -8.50165 8.25013 0.558988 63.1535 1.81393 0.950577 28.7808 6.32574e-006 2.34968e-006 178.498 1.90695 87.4178 -7.48343 -1.42928 -0.0883413 62.6673 -1.33051 -0.675458 28.7808 1.48943e-005 2.50609e-005 0.0038304 6.34024 -90.0482 14.1934 2.66395e-006 -9.9898e-008 2.52251 -2.88754e-006 -3.1409e-006 -20.0127 -7.59235e-006 4.77906e-006 -1.59028e-015 5.82377e-019 4.85314e-019 100.851 -18.4946 -85.4347 2.51027 40.9692 -20.1296 -2.94212 0.148158 -3.93665 -5.37983 -0.320026 -0.016241 -78.9393 -21.077 94.393 15.112 -36.0152 -6.86904 1.12628 36.0084 -10.6405 -0.13165 0.0569251 3.16207 1.75684 0.00161351 -0.00455836 -7.41416 0.00136674 0.00586634 
-0.422205 97.7154 -20.3715 74.4089 -89.9799 74.4718 -171.764 2.95767 94.4175 -8.48111 8.34949 0.57875 63.1718 1.79502 0.940043 28.7808 6.32574e-006 2.34968e-006 178.484 1.88736 87.3984 -7.4012 -1.48924 -0.0883437 62.5775 -1.35615 -0.689366 28.7808 1.48943e-005 2.50609e-005 0.00400124 6.34024 -90.0503 14.1934 -2.91484e-005 -4.67608e-005 2.52247 -3.6167e-005 -4.85028e-005 -20.0127 -7.59235e-006 -4.94869e-005 -3.83771e-005 -6.21202e-018 -5.40782e-005 100.836 -18.556 -85.5049 2.43739 41.0137 -20.0949 -2.94798 0.148146 -4.00293 -5.37983 -0.320026 -0.016241 -78.8781 -21.0428 94.5023 15.0468 -36.0316 -6.88138 1.29986 35.915 -10.8877 -0.397552 0.0459792 3.53656 1.79655 0.0293433 -0.072686 -7.45898 0.0221298 0.0944105 
-0.377002 97.7145 -20.3893 146.854 -89.9367 146.91 -171.762 2.96092 94.3986 -8.59236 8.32691 0.567303 63.2243 1.76973 0.923647 28.7808 6.32574e-006 2.34968e-006 178.501 2.16064 87.3702 -8.07209 -1.43703 -0.0883416 62.8855 -1.36642 -0.700501 28.7808 1.48943e-005 2.50609e-005 0.00232928 6.33982 -90.0269 14.1942 0.000609026 0.000950637 2.52329 0.00065338 0.00091752 -20.0119 0.000530568 0.00109043 0.000784758 0.000537335 0.00108845 100.805 -18.6326 -85.598 2.37441 41.0865 -20.0888 -3.0111 0.14814 -4.03534 -5.37983 -0.320026 -0.016241 -78.8774 -20.9849 94.4998 15.0291 -36.0669 -6.78161 1.39094 36.1342 -10.8987 -0.0497329 0.0674968 3.41278 1.68156 0.0783953 -0.0929608 -7.39889 0.0289062 0.119021 
-0.324696 97.7199 -20.4094 143.419 -89.9095 143.481 -171.764 2.95508 94.3761 -8.59866 8.35578 0.559422 63.2275 1.80195 0.941838 28.7808 6.32574e-006 2.34968e-006 178.488 2.04265 87.3426 -7.84474 -1.36954 -0.0883391 62.7567 -1.36716 -0.699578 28.7808 1.48943e-005 2.50609e-005 0.00778827 6.32958 -90.0106 14.2148 0.0185702 0.0259861 2.54382 0.0196957 0.0251359 -19.9913 0.00990393 0.0303588 0.0213043 0.00989895 0.0303534 100.762 -18.7834 -85.6406 2.31405 41.1363 -20.0298 -3.05562 0.148134 -4.06824 -5.37983 -0.320026 -0.016241 -78.9346 -20.7417 94.3833 15.0491 -36.0168 -6.57182 1.43584 36.0052 -10.91 -0.140477 0.0546009 3.06815 1.55914 -0.00982262 -0.437403 -7.4168 0.0415943 0.351696 
-0.265996 97.7355 -20.4212 145.639 -89.9249 145.777 -171.75 2.85971 94.4248 -8.33513 8.34706 0.531949 63.1095 1.80985 0.949159 28.7808 6.32574e-006 2.34968e-006 178.406 0.920557 87.3789 -5.47413 -1.50575 -0.0883444 61.6424 -1.31258 -0.650089 28.7808 1.48943e-005 2.50609e-005 0.0213811 6.33309 -90.058 14.2072 0.0373674 0.019237 2.53625 0.0381825 0.0175604 -19.9989 0.0298546 0.0297 0.0137421 0.0298584 0.0296903 100.807 -18.7436 -85.5264 2.40668 41.0977 -20.1617 -3.02989 0.148132 -4.0749 -5.37983 -0.320026 -0.016241 -78.874 -20.7403 94.525 15.0609 -35.951 -6.62791 1.4589 35.8316 -10.9787 -0.686141 0.0158543 2.85178 1.80825 -0.0231444 -0.2717 -7.68994 0.0107664 0.151546 
-0.211712 97.7263 -20.4385 165.371 -89.8011 165.466 -171.755 2.88461 94.3656 -8.68147 8.43983 0.567049 63.2488 1.80129 0.938177 28.7808 6.32574e-006 2.34968e-006 178.48 1.98049 87.311 -7.92442 -1.36521 -0.0883389 62.7544 -1.33093 -0.679299 28.7808 1.48943e-005 2.50609e-005 0.0198162 6.33167 -89.9974 14.1979 0.042982 0.0135119 2.52698 0.0435302 0.0116017 -20.0082 0.0369288 0.0295944 0.0044717 0.0369236 0.029587 100.757 -18.7457 -85.655 2.32517 41.1298 -20.0878 -2.97801 0.147981 -4.06052 -5.37983 -0.320026 -0.016241 -78.9446 -20.7165 94.3628 15.1477 -35.9101 -6.33686 1.36146 35.5783 -10.9195 -0.479495 0.0277143 2.77499 1.56538 -0.00104365 -0.223483 -7.4839 0.0202782 0.117365 
-0.153452 97.7538 -20.4701 172.079 -89.811 172.241 -171.734 2.76988 94.4093 -8.37856 8.37152 0.515243 63.136 1.79023 0.935852 28.7808 6.32574e-006 2.34968e-006 178.387 0.808694 87.343 -5.42196 -1.49526 -0.0883439 61.5314 -1.29592 -0.638023 28.7808 1.48943e-005 2.50609e-005 0.0282406 6.32801 -90.046 14.2152 0.0525389 0.0140664 2.54429 0.0531066 0.0117317 -19.9909 0.0458732 0.0294196 0.0217702 0.0458801 0.0294172 100.707 -18.7801 -85.784 2.27842 41.1699 -20.0265 -3.04273 0.145609 -4.15287 -5.37983 -0.320026 -0.016241 -78.9403 -20.6236 94.361 15.0866 -35.8864 -6.26766 1.46875 35.5935 -10.8779 -0.903782 -0.00374189 2.39639 1.42482 -0.0121582 -0.326963 -7.4385 0.0201778 0.22343 
-0.0971947 97.7549 -20.496 176.596 -89.7779 176.762 -171.731 2.75686 94.388 -8.40223 8.42337 0.505158 63.1118 1.89099 0.992974 28.7808 6.32574e-006 2.34968e-006 178.376 0.780981 87.3068 -5.40285 -1.50793 -0.0883669 61.5254 -1.29594 -0.63934 28.7808 1.48943e-005 2.50609e-005 0.035472 6.32585 -90.0382 14.2223 0.0674314 0.00817582 2.55137 0.0677274 0.0051904 -19.9838 0.0618533 0.0284051 0.0288527 0.061859 0.0284077 100.682 -18.7586 -85.8395 2.28177 41.1602 -20.0044 -3.02315 0.144158 -4.14108 -5.37983 -0.320026 -0.016241 -79.0105 -20.5273 94.2008 15.1003 -35.7629 -5.98849 1.50169 35.6071 -10.9453 -0.911951 -0.00610966 2.25223 1.40127 -0.0127317 -0.275028 -7.53331 0.0163925 0.127247 
-0.041874 97.7463 -20.5218 -177.998 -89.7371 -177.803 -171.717 2.65232 94.4008 -8.26471 8.35712 0.472301 63.1984 1.85396 0.97464 28.7808 6.32574e-006 2.34968e-006 178.36 0.742031 87.2971 -5.37063 -1.55665 -0.0890639 61.5278 -1.28438 -0.632845 28.7808 1.48943e-005 2.50609e-005 0.04244 6.32635 -90.056 14.2241 0.0778913 0.00244478 2.55314 0.0779213 -0.000988348 -19.982 0.0735477 0.025769 0.0306102 0.0735572 0.0257738 100.66 -18.8007 -85.8918 2.23007 41.1561 -20.0412 -2.99051 0.142883 -4.13087 -5.37983 -0.320026 -0.016241 -78.8917 -20.6498 94.4779 15.0005 -35.8707 -6.3971 1.57161 35.4854 -10.9908 -1.59309 -0.0429723 2.60627 1.34523 -0.0176794 -0.346124 -7.53572 0.012833 0.255374 
0.00123911 97.7473 -20.551 -172.322 -89.6882 -172.2 -171.755 2.89024 94.3089 -8.82773 8.57656 0.546087 63.1141 1.86618 0.967419 28.7808 6.32574e-006 2.34968e-006 178.325 0.453691 87.178 -4.83751 -1.67242 -0.0900593 61.4886 -1.2195 -0.600843 28.7808 1.48943e-005 2.50609e-005 0.0448155 6.32889 -89.9829 14.2264 0.0920897 -0.0086677 2.55548 0.0916208 -0.0127197 -19.9797 0.090433 0.0194116 0.0329454 0.0904421 0.019413 100.63 -18.7683 -85.9698 2.19419 41.1451 -19.9875 -2.96576 0.141769 -4.14697 -5.37983 -0.320026 -0.016241 -78.8017 -20.7815 94.6905 14.9385 -35.909 -6.7074 1.49412 35.615 -10.8611 -1.50292 -0.0388725 2.42227 1.33545 -0.0205191 -0.306707 -7.57599 0.0134024 0.21087 
0.0493341 97.7708 -20.5783 -172.812 -89.6125 -172.642 -171.71 2.66839 94.3551 -8.49049 8.38868 0.447826 63.0851 1.86261 0.971745 28.7808 6.32574e-006 2.34968e-006 178.335 0.634394 87.216 -5.31278 -1.55334 -0.0908509 61.4494 -1.25177 -0.613218 28.7808 1.48943e-005 2.50609e-005 0.0526697 6.33163 -90.0282 14.2251 0.0991954 -0.0196096 2.55413 0.0982377 -0.0239659 -19.9811 0.100502 0.0111085 0.0315853 0.100501 0.0111065 100.619 -18.7957 -85.9961 2.21166 41.1676 -20.0674 -2.97556 0.140807 -4.17044 -5.37983 -0.320026 -0.016241 -78.8192 -20.7182 94.6474 14.8782 -35.8849 -6.6671 1.59006 35.6151 -10.8218 -2.00235 -0.0696233 2.10769 1.20568 -0.0138591 -0.374226 -7.43594 0.0230106 0.329304 
0.0874639 97.7566 -20.6171 -173.626 -89.649 -173.483 -171.722 2.72177 94.3113 -8.47768 8.33793 0.417006 63.0831 1.75 0.906981 28.7808 6.32574e-006 2.34968e-006 178.305 0.54388 87.1608 -4.99948 -1.58348 -0.0909667 61.4133 -1.19232 -0.581489 28.7808 1.48943e-005 2.50609e-005 0.0523468 6.33368 -90.0211 14.2373 0.0974605 -0.03191 2.56637 0.0959479 -0.0361782 -19.9688 0.102532 -0.00114484 0.0438269 0.102541 -0.00114609 100.625 -18.7517 -85.9817 2.26602 41.1401 -20.1542 -2.95301 0.139989 -4.1794 -5.37983 -0.320026 -0.016241 -78.7882 -20.6612 94.7167 14.8014 -35.7822 -6.64145 1.47573 35.3407 -10.8462 -1.81451 -0.0586932 2.15517 1.4163 0.0166975 -0.325191 -7.69372 0.0487072 0.330886 
0.115029 97.7536 -20.6512 -179.487 -89.5892 -179.338 -171.742 2.57993 94.3062 -8.29983 8.27187 0.416677 63.2175 1.67158 0.867097 28.7808 6.32574e-006 2.34968e-006 178.296 0.64855 87.1134 -5.36024 -1.54124 -0.0898937 61.5689 -1.18315 -0.576345 28.7808 1.48943e-005 2.50609e-005 0.0511625 6.33356 -90.0513 14.2275 0.088336 -0.0441907 2.55656 0.0863065 -0.0480411 -19.9786 0.0975224 -0.015605 0.0340403 0.097529 -0.015601 100.618 -18.6949 -86.0063 2.30689 41.1007 -20.1911 -2.922 0.139306 -4.16171 -5.37983 -0.320026 -0.016241 -78.8315 -20.6346 94.6154 14.8891 -35.7239 -6.38467 1.57006 35.3264 -10.8956 -2.18762 -0.0804817 1.86916 1.43942 0.0331423 -0.223408 -7.5756 0.0505996 0.265419 
0.120229 97.7151 -20.6804 174.964 -89.489 175.01 -171.74 2.92262 94.2164 -9.16162 8.35391 0.403844 63.3374 1.80151 0.92576 28.7808 6.32574e-006 2.34968e-006 178.466 3.06464 87.0334 -10.458 -1.34049 -0.0860758 63.5719 -1.20952 -0.623392 28.7808 1.48943e-005 2.50609e-005 0.0365019 6.3304 -89.9591 14.2127 0.0704058 -0.0562106 2.54178 0.067869 -0.0592593 -19.9934 0.0840365 -0.0324586 0.0192527 0.0840494 -0.0324478 100.575 -18.6887 -86.112 2.23879 41.0824 -20.1135 -2.87965 0.138739 -4.1558 -5.37983 -0.320026 -0.016241 -78.8216 -20.6019 94.6372 14.9277 -35.6795 -6.31915 1.4653 35.1787 -10.8444 -2.14082 -0.077945 1.85536 1.41292 0.0626956 -0.213932 -7.42712 0.078185 0.28627 
